# xmcd CD database file
#
# Track frame offsets:
#	150
#	25005
#	43173
#	58065
#	77156
#	99535
#	110749
#	126350
#	141066
#	155859
#
# Disc length: 2264 seconds
#
# Revision: 0
# Processed by: cddbd v1.5.2PL0 Copyright (c) Steve Scherf et al.
# Submitted via: CDex 1.70beta2
#
DISCID=8d08d60a
DTITLE=32/20 Blues Band - Crossbrain
DYEAR=2014
DGENRE=Blues
TTITLE0=Ignored
TTITLE1=Call You Trouble
TTITLE2=Join The Band
TTITLE3=Get Over Here
TTITLE4=Real
TTITLE5=Stay
TTITLE6=Wallstreet
TTITLE7=Without Her
TTITLE8=Forget About You
TTITLE9=Moonshine
EXTD=YEAR: 2014
EXTT0=
EXTT1=
EXTT2=
EXTT3=
EXTT4=
EXTT5=
EXTT6=
EXTT7=
EXTT8=
EXTT9=
PLAYORDER=
